<svg width="24" height="24" viewBox="0 0 24 24" fill="none" xmlns="http://www.w3.org/2000/svg">
<path d="M5.426 4.48333C7.186 2.942 9.48267 2 12 2C17.514 2 22 6.486 22 12C22 14.5173 21.058 16.814 19.5167 18.574L16.4273 15.4847C17.368 14.8947 17.9993 13.856 17.9993 12.6667V11.3333C17.9993 9.49533 16.504 8 14.666 8H13.3327C12.9647 8 12.666 8.298 12.666 8.66667V11.724L5.426 4.48333ZM16.6667 12.6667V11.3333C16.6667 10.2307 15.7693 9.33333 14.6667 9.33333H14V13.0573L15.4493 14.5067C16.164 14.2013 16.6667 13.492 16.6667 12.6667ZM9.17067 12.6667L8.66667 10.9867L8.16267 12.6667H9.17067ZM15.0213 15.964C14.9033 15.9767 14.788 16 14.6667 16H13.3333C12.9653 16 12.6667 15.702 12.6667 15.3333V13.6093L10.0653 11.008L11.3053 15.142C11.4113 15.494 11.2107 15.866 10.858 15.972C10.794 15.9907 10.73 16 10.666 16C10.3793 16 10.1147 15.814 10.0273 15.5247L9.57 14H7.81333L7.29867 15.544C7.18333 15.8887 6.812 16.08 6.46533 15.9687C6.118 15.8587 5.92333 15.4907 6.028 15.142L7.91333 8.85667L4.48333 5.426C2.942 7.186 2 9.48267 2 12C2 17.514 6.486 22 12 22C14.5173 22 16.814 21.058 18.574 19.5167L15.0213 15.964Z" fill="url(#paint0_linear_5450_28472)"/>
<defs>
<linearGradient id="paint0_linear_5450_28472" x1="2" y1="12" x2="23.2082" y2="12.6663" gradientUnits="userSpaceOnUse">
<stop stop-color="#FFEBC3"/>
<stop offset="1" stop-color="#CA9834"/>
</linearGradient>
</defs>
</svg>
