<svg width="26" height="26" viewBox="0 0 26 26" fill="none" xmlns="http://www.w3.org/2000/svg">
<circle opacity="0.1" cx="13.0013" cy="13" r="10.8333" fill="white"/>
<path d="M17.2119 9.38251C17.3756 9.21874 17.3756 8.95322 17.2119 8.78945C17.0481 8.62568 16.7826 8.62568 16.6188 8.78945L13.0013 12.4069L9.38386 8.78945C9.22009 8.62569 8.95456 8.62569 8.7908 8.78945C8.62703 8.95322 8.62703 9.21874 8.7908 9.38251L12.4083 13L8.79081 16.6174C8.62704 16.7812 8.62704 17.0467 8.79081 17.2105C8.95458 17.3742 9.2201 17.3742 9.38387 17.2105L13.0013 13.593L16.6188 17.2105C16.7826 17.3742 17.0481 17.3742 17.2118 17.2105C17.3756 17.0467 17.3756 16.7812 17.2118 16.6174L13.5944 13L17.2119 9.38251Z" fill="white" stroke="white" stroke-width="0.5" stroke-linecap="round"/>
</svg>
