<svg width="20" height="20" viewBox="0 0 20 20" fill="none" xmlns="http://www.w3.org/2000/svg">
<path d="M2 9.11108C2 13.5555 5.55556 17.1111 10 17.1111C14.3889 17.1111 18 13.5555 18 9.11108V10.8889C18 15.3333 14.4444 18.8889 10 18.8889C5.61111 18.8889 2 15.3333 2 10.8889V9.11108Z" fill="#FFB961"/>
<path d="M2 9.11108C2 13.5555 5.55556 17.1111 10 17.1111C14.3889 17.1111 18 13.5555 18 9.11108V10.8889C18 15.3333 14.4444 18.8889 10 18.8889C5.61111 18.8889 2 15.3333 2 10.8889V9.11108Z" fill="#F3A250"/>
<g opacity="0.6">
<path d="M9.99826 17.1111C8.38715 17.1111 6.8316 16.6111 5.60938 15.7778V17.5555C6.88715 18.3889 8.38715 18.8889 9.99826 18.8889C14.3872 18.8889 17.9983 15.3333 17.9983 10.8889V9.11108C17.9983 13.5 14.3872 17.1111 9.99826 17.1111Z" fill="#EF7B56"/>
</g>
<path d="M11.3906 16.9444V18.7222C15.1128 18.0555 18.0017 14.7778 18.0017 10.8333V9.05554C18.0017 13.0555 15.1684 16.2778 11.3906 16.9444Z" fill="#F3A250"/>
<g opacity="0.6">
<path d="M15.8906 14.5V16.2778C17.224 14.8333 18.0017 12.9444 18.0017 10.8889V9.11108C18.0017 11.1666 17.1684 13.0555 15.8906 14.5Z" fill="#EF7B56"/>
</g>
<path d="M18.001 9.11109C18.001 13.5555 14.4454 17.1111 10.001 17.1111C6.00097 17.1111 2.72319 14.2222 2.11208 10.3889C1.3343 5.61109 5.00097 1.11108 10.001 1.11108C13.3899 1.11108 16.3343 3.2222 17.4454 6.27775C17.8343 7.11109 18.001 8.11109 18.001 9.11109Z" fill="#F9CF6B"/>
<g opacity="0.4">
<path d="M3.94531 13.1666C5.55642 15.1111 7.77865 16.1111 10.0009 16.1111C12.2231 16.1111 14.4453 15.1111 16.0564 13.1111C14.9453 15.1111 12.7231 16.5555 10.0009 16.6111C7.3342 16.6111 5.05642 15.1111 3.94531 13.1666Z" fill="white"/>
</g>
<g opacity="0.2">
<path d="M16.7782 6.16668C15.3893 3.50001 12.7782 1.94446 10.0004 1.94446C7.22266 1.94446 4.61155 3.50001 3.22266 6.11112C4.11155 3.55557 6.77821 1.50001 10.0004 1.44446C13.2227 1.50001 15.8338 3.55557 16.7782 6.16668Z" fill="white"/>
</g>
<g opacity="0.4">
<path d="M3.94531 13.1666C5.55642 15.1111 7.77865 16.1111 10.0009 16.1111C12.2231 16.1111 14.4453 15.1111 16.0564 13.1111C14.9453 15.1111 12.7231 16.5555 10.0009 16.6111C7.3342 16.6111 5.05642 15.1111 3.94531 13.1666Z" fill="white"/>
</g>
<path d="M16.0564 9.1111C16.0564 12.4444 13.3342 15.1667 10.0009 15.1667C6.66753 15.1667 3.94531 12.4444 3.94531 9.1111C3.94531 5.77776 6.66753 3.05554 10.0009 3.05554C13.3342 3.05554 16.0564 5.77776 16.0564 9.1111Z" fill="#F3A250"/>
<path d="M11.9989 9.99996L12.3322 12.1111C12.3877 12.4444 12.0544 12.6666 11.7766 12.5555L9.88775 11.5555C9.77664 11.5 9.60997 11.5 9.49886 11.5555L7.60997 12.5555C7.33219 12.7222 6.99886 12.4444 7.05442 12.1111L7.38775 9.99996C7.38775 9.88885 7.38775 9.72218 7.27664 9.66663L5.72108 8.16663C5.49886 7.9444 5.60997 7.55552 5.9433 7.49996L8.05442 7.16663C8.16553 7.16663 8.27664 7.05552 8.33219 6.9444L9.33219 4.99996C9.49886 4.72218 9.88775 4.72218 10.0544 4.99996L10.9989 6.9444C11.0544 7.05552 11.1655 7.16663 11.2766 7.16663L13.3877 7.49996C13.7211 7.55552 13.8322 7.9444 13.61 8.16663L12.0544 9.66663C11.9989 9.72218 11.9433 9.88885 11.9989 9.99996Z" fill="#EF7B56"/>
<path d="M15.4454 11.7222C17.0566 7.88888 14.2232 3.55554 10.001 3.55554C5.83434 3.55554 2.94545 7.77776 4.501 11.6667C2.66767 7.66665 5.55656 3.05554 10.001 3.05554C14.501 3.05554 17.3899 7.77776 15.4454 11.7222Z" fill="#EF7B56"/>
<path d="M12.3348 10.3333L12.6681 12.4444C12.7237 12.7778 12.3904 13 12.1126 12.8889L10.2237 11.8889C10.1126 11.8333 9.94591 11.8333 9.8348 11.8889L7.94591 12.8889C7.66813 13.0556 7.3348 12.7778 7.39035 12.4444L7.72369 10.3333C7.72369 10.2222 7.72369 10.0556 7.61258 10L6.05702 8.5C5.8348 8.27778 5.94591 7.88889 6.27924 7.83333L8.39035 7.5C8.50146 7.5 8.61258 7.38889 8.66813 7.27778L9.61257 5.33333C9.77924 5.05556 10.1681 5.05556 10.3348 5.33333L11.2792 7.27778C11.3348 7.38889 11.4459 7.5 11.557 7.5L13.6681 7.83333C14.0015 7.88889 14.1126 8.27778 13.8904 8.5L12.4459 10C12.3348 10.0556 12.2792 10.2222 12.3348 10.3333Z" fill="#F9CF6B"/>
<g opacity="0.5">
<path d="M6.44374 8.55557C6.22152 8.33335 6.33263 8.00001 6.66596 7.94446L8.55485 7.66668C8.66596 7.66668 8.77707 7.55557 8.83263 7.50001L9.66596 5.77779C9.77707 5.50001 10.166 5.50001 10.2771 5.77779L11.1104 7.50001C11.166 7.61112 11.2771 7.66668 11.3882 7.66668L13.2771 7.94446C13.5548 8.00001 13.666 8.33335 13.4993 8.55557C13.4993 8.55557 12.2771 9.8889 9.88818 9.8889C8.05485 9.8889 6.44374 8.55557 6.44374 8.55557Z" fill="white"/>
</g>
<g opacity="0.7">
<path d="M10.0553 6.94442C9.88861 7.3333 9.61083 7.61108 9.49972 7.55553C9.38861 7.49997 9.33305 7.11108 9.49972 6.72219C9.66639 6.33331 9.94416 6.05553 10.0553 6.11108C10.1664 6.16664 10.2219 6.55553 10.0553 6.94442Z" fill="white"/>
</g>
<path d="M6.94618 5.1666C6.77951 5.1666 6.6684 5.22215 6.55729 5.27771C6.61285 5.33327 7.05729 5.77771 7.00174 5.83327C6.94618 5.88882 6.50174 5.44438 6.44618 5.38882C6.39063 5.49993 6.33507 5.61104 6.33507 5.77771C6.33507 6.38882 6.27951 6.77771 6.1684 6.77771C6.11285 6.77771 6.05729 6.38882 6.00174 5.77771C6.00174 5.61104 5.94618 5.49993 5.89063 5.38882C5.83507 5.44438 5.39063 5.88882 5.33507 5.83327C5.27951 5.77771 5.72396 5.33327 5.77951 5.27771C5.6684 5.22215 5.55729 5.1666 5.39063 5.1666C4.05729 5.11104 4.05729 4.94438 5.39063 4.88882C5.50174 4.88882 5.6684 4.83327 5.77951 4.77771C5.72396 4.72215 5.27951 4.27771 5.33507 4.22215C5.39063 4.1666 5.83507 4.61104 5.89063 4.6666C5.94618 4.55549 6.00174 4.44438 6.00174 4.27771C6.05729 2.94438 6.22396 2.94438 6.27951 4.27771C6.27951 4.38882 6.33507 4.55549 6.39063 4.6666C6.44618 4.61104 6.89063 4.1666 6.94618 4.22215C7.00174 4.27771 6.83507 4.49993 6.55729 4.77771V4.83327C6.6684 4.88882 6.77951 4.94438 6.94618 4.94438C7.55729 4.94438 7.94618 4.99993 7.94618 5.11104C7.94618 5.11104 7.55729 5.1666 6.94618 5.1666Z" fill="white"/>
<g opacity="0.2">
<path d="M16.7782 6.16668C15.3893 3.50001 12.7782 1.94446 10.0004 1.94446C7.22266 1.94446 4.61155 3.50001 3.22266 6.11112C4.11155 3.55557 6.77821 1.50001 10.0004 1.44446C13.2227 1.50001 15.8338 3.55557 16.7782 6.16668Z" fill="white"/>
</g>
</svg>
