<svg width="24" height="24" viewBox="0 0 24 24" fill="none" xmlns="http://www.w3.org/2000/svg">
<path d="M19.4414 3C19.7773 2.99976 20.1105 3.06498 20.4209 3.19238C20.7314 3.31986 21.0134 3.50742 21.251 3.74316C21.4885 3.97885 21.6772 4.25844 21.8057 4.56641C21.9341 4.87438 22.0002 5.20479 22 5.53809V18.4619C22.0002 18.7952 21.9341 19.1257 21.8057 19.4336C21.6772 19.7415 21.4885 20.0212 21.251 20.2568C21.0134 20.4926 20.7313 20.6802 20.4209 20.8076C20.1105 20.935 19.7773 21.0002 19.4414 21H4.55859C4.22271 21.0002 3.88948 20.935 3.5791 20.8076C3.26867 20.6802 2.9866 20.4926 2.74902 20.2568C2.51154 20.0212 2.3228 19.7415 2.19434 19.4336C2.06593 19.1257 1.99982 18.7952 2 18.4619V5.53809C1.9998 5.20479 2.06591 4.87438 2.19434 4.56641C2.3228 4.25844 2.51151 3.97885 2.74902 3.74316C2.98661 3.50742 3.26864 3.31986 3.5791 3.19238C3.88949 3.06498 4.22269 2.99976 4.55859 3H19.4414ZM10.1396 8.53809C9.95468 8.53809 9.77731 8.61146 9.64648 8.74121C9.51571 8.87098 9.44148 9.04695 9.44141 9.23047V11.3076H7.11621V9.23047C7.11614 9.047 7.04283 8.87097 6.91211 8.74121C6.78135 8.61146 6.60386 8.53818 6.41895 8.53809C6.23391 8.53809 6.05564 8.61138 5.9248 8.74121C5.79418 8.87096 5.72077 9.04707 5.7207 9.23047V14.7695C5.7208 14.9529 5.79417 15.1291 5.9248 15.2588C6.05564 15.3886 6.23391 15.4619 6.41895 15.4619C6.60386 15.4618 6.78135 15.3885 6.91211 15.2588C7.04284 15.129 7.11611 14.953 7.11621 14.7695V12.6924H9.44141V14.7695C9.44151 14.953 9.51573 15.129 9.64648 15.2588C9.77731 15.3885 9.9547 15.4619 10.1396 15.4619C10.3246 15.4619 10.502 15.3885 10.6328 15.2588C10.7636 15.129 10.8368 14.953 10.8369 14.7695V9.23047C10.8368 9.04695 10.7636 8.87098 10.6328 8.74121C10.502 8.61142 10.3246 8.53812 10.1396 8.53809ZM13.8604 8.53809C13.6757 8.53932 13.4987 8.61265 13.3682 8.74219C13.2377 8.8717 13.1644 9.04733 13.1631 9.23047V14.7695C13.1644 14.9526 13.2377 15.1283 13.3682 15.2578C13.4987 15.3873 13.6758 15.4607 13.8604 15.4619H15.7207C16.0567 15.4622 16.3897 15.396 16.7002 15.2686C17.0106 15.1411 17.2927 14.9544 17.5303 14.7188C17.7679 14.483 17.9565 14.2026 18.085 13.8945C18.2134 13.5865 18.2795 13.2562 18.2793 12.9229V11.0771C18.2795 10.7438 18.2134 10.4135 18.085 10.1055C17.9565 9.79738 17.7679 9.51701 17.5303 9.28125C17.2927 9.04556 17.0106 8.85891 16.7002 8.73145C16.3897 8.60396 16.0567 8.53784 15.7207 8.53809H13.8604ZM15.7217 9.92285C16.03 9.92293 16.3259 10.0444 16.5439 10.2607C16.762 10.4771 16.8838 10.7712 16.8838 11.0771V12.9229C16.8838 13.2289 16.762 13.5229 16.5439 13.7393C16.3259 13.9556 16.03 14.0771 15.7217 14.0771H14.5586V9.92285H15.7217Z" fill="url(#paint0_linear_5450_28401)"/>
<defs>
<linearGradient id="paint0_linear_5450_28401" x1="2" y1="12" x2="23.2033" y2="12.7402" gradientUnits="userSpaceOnUse">
<stop stop-color="#FFEBC3"/>
<stop offset="1" stop-color="#CA9834"/>
</linearGradient>
</defs>
</svg>
