<svg width="24" height="24" viewBox="0 0 24 24" fill="none" xmlns="http://www.w3.org/2000/svg">
<path d="M17.4285 7C14.5911 7 12.7133 9.38829 11.0567 11.4959C9.64136 13.2963 8.3048 14.9964 6.67694 14.9964C4.98492 14.9964 3.94605 13.2061 3.94605 11.9227C3.94605 10.7327 5.0857 9.00343 6.87186 9.00343C8.60502 9.00343 9.50795 10.4315 9.55349 10.5047C9.83427 10.9724 10.4305 11.1197 10.8871 10.8329C11.346 10.5451 11.4914 9.92873 11.2117 9.45628C11.1523 9.35622 9.72497 7.00014 6.87186 7.00014C4.00091 7.00014 2 9.59471 2 11.9228C2 14.3243 3.92076 17 6.67681 17C9.23289 17 10.9292 14.8427 12.5693 12.7562C14.0865 10.8266 15.5197 9.00356 17.4285 9.00356C18.5642 9.00356 19.3104 9.40022 19.7093 10.2152C20.0549 10.9224 20.0546 11.7227 20.0543 12C20.0543 12.159 19.9727 12.9564 19.5949 13.6745C19.1641 14.4925 18.5524 14.8732 17.6685 14.8732C15.8886 14.8732 14.927 13.6822 14.5649 13.2336C14.4707 13.1168 14.403 13.0328 14.3124 12.953C13.9048 12.5935 13.2902 12.6417 12.9403 13.062C12.603 13.4672 12.6355 14.0698 13.004 14.4345C13.0216 14.455 13.0427 14.482 13.0679 14.5134C13.5399 15.0981 14.9749 16.8764 17.6681 16.8764C20.9414 16.8764 22 13.5906 22 11.9863C22.0003 10.9645 21.8144 10.0657 21.447 9.31414C20.931 8.25877 19.8148 7 17.4285 7Z" fill="url(#paint0_linear_5450_28385)"/>
<defs>
<linearGradient id="paint0_linear_5450_28385" x1="2" y1="12" x2="23.1457" y2="13.3287" gradientUnits="userSpaceOnUse">
<stop stop-color="#FFEBC3"/>
<stop offset="1" stop-color="#CA9834"/>
</linearGradient>
</defs>
</svg>
