<svg width="24" height="24" viewBox="0 0 24 24" fill="none" xmlns="http://www.w3.org/2000/svg">
<path d="M15.677 5.78461C16.105 5.37893 16.108 4.71824 15.6839 4.30893C15.2598 3.89961 14.5691 3.89666 14.1412 4.30234L11.5306 6.77718C10.5474 7.70927 9.7438 8.47108 9.1739 9.14986C8.58128 9.8557 8.15228 10.5721 8.03769 11.4321C7.98744 11.8092 7.98744 12.1908 8.03769 12.5679C8.15228 13.4279 8.58128 14.1443 9.1739 14.8501C9.7438 15.5289 10.5474 16.2907 11.5306 17.2228L14.1412 19.6977C14.5691 20.1033 15.2598 20.1004 15.6839 19.6911C16.108 19.2818 16.105 18.6211 15.677 18.2154L13.1127 15.7843C12.072 14.7977 11.3581 14.1187 10.875 13.5434C10.4058 12.9845 10.2448 12.6255 10.202 12.304C10.1751 12.1021 10.1751 11.8979 10.202 11.696C10.2448 11.3745 10.4058 11.0155 10.875 10.4566C11.3581 9.88129 12.072 9.20228 13.1127 8.21565L15.677 5.78461Z" fill="white"/>
</svg>
