<svg width="24" height="24" viewBox="0 0 24 24" fill="none" xmlns="http://www.w3.org/2000/svg">
<path d="M12 2C7.5888 2 4 5.6129 4 10.0535C4 14.4941 7.5888 18.1071 12 18.1071C16.4112 18.1071 20 14.4942 20 10.0535C20 5.61286 16.4112 2 12 2ZM16.9517 8.96992L14.987 11.0037L15.3886 13.8123C15.4042 13.9212 15.3899 14.0325 15.3473 14.1339C15.3048 14.2353 15.2355 14.3231 15.147 14.3878C15.0585 14.4525 14.9541 14.4917 14.8451 14.5011C14.7361 14.5104 14.6267 14.4897 14.5285 14.441L12 13.1874L9.47128 14.441C9.37313 14.4897 9.26365 14.5104 9.15464 14.501C9.04564 14.4917 8.94125 14.4525 8.85274 14.3877C8.76423 14.323 8.69496 14.2352 8.6524 14.1337C8.60984 14.0323 8.5956 13.921 8.61123 13.812L9.01398 11.0035L7.04927 8.96992C6.97302 8.89098 6.91962 8.79258 6.89483 8.68534C6.87004 8.5781 6.87481 8.46608 6.9086 8.36136C6.9424 8.25665 7.00395 8.1632 7.08662 8.09111C7.16929 8.01901 7.26994 7.97101 7.37771 7.95226L10.1541 7.46915L11.4685 4.95968C11.5195 4.86227 11.596 4.78073 11.6896 4.72385C11.7833 4.66697 11.8906 4.63691 12 4.63691C12.1094 4.63691 12.2167 4.66697 12.3104 4.72385C12.404 4.78073 12.4805 4.86227 12.5315 4.95968L13.8457 7.46923L16.6233 7.9523C16.7311 7.97104 16.8317 8.01905 16.9144 8.09115C16.9971 8.16324 17.0586 8.25669 17.0924 8.36142C17.1262 8.46614 17.131 8.57817 17.1062 8.68542C17.0814 8.79266 17.028 8.89106 16.9517 8.97L16.9517 8.96992ZM13.3498 8.61048L15.2958 8.94895L13.9195 10.3736C13.8554 10.44 13.8072 10.5204 13.7788 10.6084C13.7504 10.6965 13.7424 10.79 13.7555 10.8817L14.037 12.849L12.2654 11.9706C12.1829 11.9296 12.092 11.9083 12 11.9083C11.908 11.9083 11.8171 11.9296 11.7346 11.9706L9.96347 12.8486L10.2455 10.8817C10.2587 10.7901 10.2508 10.6966 10.2223 10.6085C10.1939 10.5204 10.1457 10.4401 10.0816 10.3737L8.70524 8.94891L10.6502 8.61048C10.7408 8.59471 10.8266 8.55821 10.901 8.50379C10.9754 8.44936 11.0364 8.37847 11.0793 8.29657L12 6.53855L12.9206 8.29661C12.9635 8.37851 13.0245 8.4494 13.0989 8.50382C13.1734 8.55824 13.2592 8.59473 13.3498 8.61048ZM16.9822 17.838V21.3952C16.9822 21.4957 16.9573 21.5947 16.9097 21.6831C16.8622 21.7715 16.7935 21.8466 16.7098 21.9016C16.6262 21.9566 16.5303 21.9897 16.4307 21.9979C16.3311 22.0062 16.2311 21.9893 16.1397 21.9489L12 20.1174L7.86153 21.9489C7.77008 21.9893 7.67005 22.0062 7.57049 21.998C7.47093 21.9897 7.37499 21.9566 7.29134 21.9016C7.20769 21.8467 7.13898 21.7716 7.09141 21.6831C7.04385 21.5947 7.01895 21.4957 7.01895 21.3952V17.8387C8.50366 18.8037 10.2334 19.3169 12.0007 19.3167C13.7679 19.3166 15.4976 18.8032 16.9822 17.838Z" fill="url(#paint0_linear_5450_28466)"/>
<defs>
<linearGradient id="paint0_linear_5450_28466" x1="4" y1="12" x2="20.9726" y2="12.4266" gradientUnits="userSpaceOnUse">
<stop stop-color="#FFEBC3"/>
<stop offset="1" stop-color="#CA9834"/>
</linearGradient>
</defs>
</svg>
