<svg width="22" height="22" viewBox="0 0 22 22" fill="none" xmlns="http://www.w3.org/2000/svg">
<path d="M10.1101 3.6879C10.5264 3.04853 11.4736 3.04853 11.8899 3.6879L14.0224 6.96334C14.1656 7.18333 14.3873 7.34225 14.6437 7.40865L18.4603 8.39734C19.2053 8.59034 19.498 9.47911 19.0102 10.0673L16.5116 13.0803C16.3438 13.2826 16.2591 13.5398 16.2743 13.8008L16.5006 17.6873C16.5448 18.4459 15.7784 18.9952 15.0607 18.7193L11.384 17.3061C11.137 17.2111 10.863 17.2111 10.616 17.3061L6.93929 18.7193C6.22158 18.9952 5.45525 18.4459 5.49941 17.6873L5.72568 13.8008C5.74088 13.5398 5.65619 13.2826 5.48837 13.0803L2.98975 10.0672C2.50202 9.4791 2.79474 8.59034 3.53974 8.39734L7.35632 7.40865C7.61265 7.34225 7.83437 7.18333 7.9776 6.96334L10.1101 3.6879Z" fill="#FFBF3F"/>
</svg>
