<svg width="24" height="24" viewBox="0 0 24 24" fill="none" xmlns="http://www.w3.org/2000/svg">
<path d="M21.8797 11.9662C21.6634 11.5816 21.1586 11.4374 20.75 11.6778L18.0096 13.2643L17.3125 13.6729V17.4709L17.9615 17.8556C17.9856 17.8556 17.9856 17.8796 18.0096 17.8796L20.7019 19.4421C20.8221 19.5382 20.9903 19.5863 21.1586 19.5863C21.6153 19.5863 21.9759 19.2257 21.9759 18.769V15.5479L21.9999 12.3749C21.9999 12.2306 21.9759 12.0864 21.8797 11.9662Z" fill="url(#paint0_linear_5450_28455)"/>
<path d="M5.87038 10.7403C8.00977 10.7403 9.74052 9.00953 9.74052 6.87014C9.74052 4.73074 8.00977 3 5.87038 3C3.73099 3 2.00024 4.73074 2.00024 6.87014C1.97621 9.00953 3.73099 10.7403 5.87038 10.7403ZM5.87038 5.28362C6.75979 5.28362 7.4569 6.00477 7.4569 6.87014C7.4569 7.75955 6.73575 8.45665 5.87038 8.45665C5.00501 8.45665 4.28387 7.73551 4.28387 6.87014C4.25983 5.98073 4.98097 5.28362 5.87038 5.28362Z" fill="url(#paint1_linear_5450_28455)"/>
<path d="M15.6795 10.9566C15.0545 11.2691 14.3574 11.4614 13.6122 11.4614C12.6988 11.4614 11.8334 11.197 11.1123 10.7162H8.37192C7.65077 11.197 6.7854 11.4614 5.87195 11.4614C5.12677 11.4614 4.42967 11.2932 3.80467 10.9566C3.2518 11.2691 2.86719 11.8941 2.86719 12.5672V18.4325C2.86719 19.5142 3.7566 20.3796 4.81428 20.3796H14.6939C15.7757 20.3796 16.641 19.4902 16.641 18.4325V12.5672C16.617 11.8941 16.2324 11.2691 15.6795 10.9566Z" fill="url(#paint2_linear_5450_28455)"/>
<path d="M13.6123 10.7403C15.7517 10.7403 17.4825 9.00953 17.4825 6.87014C17.4825 4.73074 15.7517 3 13.6123 3C11.4729 3 9.74219 4.73074 9.74219 6.87014C9.74219 9.00953 11.4729 10.7403 13.6123 10.7403ZM13.6123 5.28362C14.5017 5.28362 15.1988 6.00477 15.1988 6.87014C15.1988 7.75955 14.4777 8.45665 13.6123 8.45665C12.747 8.45665 12.0258 7.73551 12.0258 6.87014C12.0258 5.98073 12.7229 5.28362 13.6123 5.28362Z" fill="url(#paint3_linear_5450_28455)"/>
<defs>
<linearGradient id="paint0_linear_5450_28455" x1="17.3125" y1="15.5733" x2="22.2863" y2="15.6645" gradientUnits="userSpaceOnUse">
<stop stop-color="#FFEBC3"/>
<stop offset="1" stop-color="#CA9834"/>
</linearGradient>
<linearGradient id="paint1_linear_5450_28455" x1="2" y1="6.87014" x2="10.2081" y2="7.12802" gradientUnits="userSpaceOnUse">
<stop stop-color="#FFEBC3"/>
<stop offset="1" stop-color="#CA9834"/>
</linearGradient>
<linearGradient id="paint2_linear_5450_28455" x1="2.86719" y1="15.5479" x2="17.4583" y2="16.2013" gradientUnits="userSpaceOnUse">
<stop stop-color="#FFEBC3"/>
<stop offset="1" stop-color="#CA9834"/>
</linearGradient>
<linearGradient id="paint3_linear_5450_28455" x1="9.74219" y1="6.87014" x2="17.9501" y2="7.128" gradientUnits="userSpaceOnUse">
<stop stop-color="#FFEBC3"/>
<stop offset="1" stop-color="#CA9834"/>
</linearGradient>
</defs>
</svg>
